<svg width="25" height="25" viewBox="0 0 25 25" fill="none" xmlns="http://www.w3.org/2000/svg">
<path d="M22.2847 14.5841L22.2847 14.5841C22.2277 14.8663 22.0331 14.975 21.9061 14.975H9.18281H8.40398L8.5433 15.7413L8.82737 17.3038L8.9244 17.8375H9.46688H21.117C21.211 17.8375 21.3158 17.8844 21.4009 18.0044C21.4871 18.1258 21.5338 18.3013 21.4956 18.4904L21.2561 19.6757L21.1613 20.1453L21.5817 20.3749C22.168 20.6951 22.6139 21.4015 22.6139 22.2656C22.6139 23.4909 21.7469 24.35 20.8333 24.35C19.9198 24.35 19.0528 23.4909 19.0528 22.2656C19.0528 21.6584 19.2747 21.1235 19.6143 20.7493L20.6004 19.6625H19.1329H10.0337H8.56613L9.55232 20.7493C9.89194 21.1236 10.1139 21.6584 10.1139 22.2656C10.1139 23.4909 9.24685 24.35 8.33333 24.35C7.41982 24.35 6.55278 23.4909 6.55278 22.2656C6.55278 21.4575 6.94406 20.7847 7.47682 20.44L7.84081 20.2045L7.76326 19.778L4.7143 3.00872L4.61726 2.475H4.07478H1.04167C0.895206 2.475 0.65 2.31544 0.65 1.95312V1.17188C0.65 0.809555 0.895206 0.65 1.04167 0.65H5.49171C5.62057 0.65 5.81996 0.763019 5.87272 1.05326L5.87272 1.05329L6.27055 3.24128L6.3676 3.775H6.91007H23.9579C24.0519 3.775 24.1567 3.82189 24.2419 3.94194C24.328 4.0633 24.3747 4.23878 24.3365 4.42788L22.2847 14.5841Z" stroke="white" stroke-width="1.3"/>
</svg>
