<svg width="25" height="22" viewBox="0 0 25 22" fill="none" xmlns="http://www.w3.org/2000/svg">
<path d="M3.2685 16.6584L3.33639 16.3847L3.13725 16.185C1.47831 14.5214 0.5 12.427 0.5 10.1562C0.5 4.91407 5.76981 0.5 12.5 0.5C19.2302 0.5 24.5 4.91407 24.5 10.1562C24.5 15.3984 19.2302 19.8125 12.5 19.8125C10.6868 19.8125 8.97388 19.4773 7.43189 18.8972L7.16626 18.7973L6.94429 18.9742C5.81665 19.8726 3.59164 21.2955 0.638631 21.3718C0.851246 21.127 1.22855 20.6697 1.63779 20.0737C2.24261 19.1927 2.94266 17.9723 3.2685 16.6584ZM0.468693 21.5614C0.469707 21.5603 0.4708 21.5592 0.471971 21.5579C0.470925 21.5591 0.469849 21.5603 0.468743 21.5614L0.468693 21.5614Z" stroke="white"/>
</svg>
