<svg width="25" height="25" viewBox="0 0 25 25" fill="none" xmlns="http://www.w3.org/2000/svg">
<path d="M0 2.73438V14.4531C0 15.1003 0.524658 15.625 1.17188 15.625H5.07812C5.72534 15.625 6.25 15.1003 6.25 14.4531V2.73438C6.25 2.08716 5.72534 1.5625 5.07812 1.5625H1.17188C0.524658 1.5625 0 2.08716 0 2.73438ZM1.95312 12.5C1.95312 11.8528 2.47778 11.3281 3.125 11.3281C3.77222 11.3281 4.29688 11.8528 4.29688 12.5C4.29688 13.1472 3.77222 13.6719 3.125 13.6719C2.47778 13.6719 1.95312 13.1472 1.95312 12.5ZM15.2344 25C14.2489 25 13.7947 23.0814 13.5776 22.178C13.3234 21.1201 13.0605 20.0261 12.3377 19.3019C10.7523 17.7138 9.92056 15.6902 7.98628 13.7789C7.93124 13.7245 7.88754 13.6597 7.85772 13.5883C7.8279 13.5169 7.81254 13.4402 7.81255 13.3628V2.92485C7.81255 2.60547 8.06855 2.34487 8.38789 2.33901C9.16089 2.32485 10.1796 1.8957 10.9587 1.54907C12.5092 0.859277 14.4389 0.000830078 16.7966 0H16.9355C19.0242 0 21.4942 0.020166 22.4909 1.452C22.9006 2.04072 23.0009 2.77202 22.7911 3.6313C23.5875 4.46396 24.0148 6.01719 23.591 7.28154C24.4476 8.42568 24.5257 10.0224 24.0455 11.1619L24.0508 11.1672C24.6315 11.7507 25.0041 12.6936 25 13.5694C24.9924 15.0515 23.7228 16.4062 22.0921 16.4062H17.1251C17.4819 17.79 18.75 18.9518 18.75 21.0229C18.75 24.6094 16.4062 25 15.2344 25Z" fill="white"/>
</svg>
