<svg width="24" height="24" viewBox="0 0 24 24" fill="none" xmlns="http://www.w3.org/2000/svg">
<path d="M10.6377 7.83789C10.4919 7.56901 10.346 7.34798 10.2002 7.1748C10.0544 6.99707 9.90853 6.85807 9.7627 6.75781C9.61686 6.65299 9.46875 6.58008 9.31836 6.53906C9.16797 6.49805 9.0153 6.47754 8.86035 6.47754C8.6416 6.47754 8.42741 6.51628 8.21777 6.59375C8.00814 6.66667 7.82129 6.77832 7.65723 6.92871C7.49316 7.0791 7.361 7.26595 7.26074 7.48926C7.16048 7.71257 7.11035 7.97005 7.11035 8.26172C7.11035 8.50781 7.17415 8.75618 7.30176 9.00684C7.42936 9.25749 7.58659 9.51497 7.77344 9.7793C7.96484 10.0391 8.1722 10.3057 8.39551 10.5791C8.61882 10.8525 8.82389 11.1351 9.01074 11.4268C9.20215 11.7184 9.36165 12.0215 9.48926 12.3359C9.61686 12.6458 9.68066 12.9671 9.68066 13.2998C9.68066 13.7236 9.57585 14.111 9.36621 14.4619C9.16113 14.8083 8.88542 15.1045 8.53906 15.3506C8.19727 15.5967 7.80306 15.7881 7.35645 15.9248C6.90983 16.057 6.44727 16.123 5.96875 16.123C5.60417 16.123 5.26693 16.082 4.95703 16C4.65169 15.918 4.38737 15.7972 4.16406 15.6377C3.94076 15.4736 3.76758 15.2754 3.64453 15.043C3.51693 14.806 3.45312 14.5326 3.45312 14.2227C3.45312 14.0039 3.48047 13.7874 3.53516 13.5732C3.58984 13.359 3.67871 13.1471 3.80176 12.9375C3.9248 12.7279 4.08659 12.5182 4.28711 12.3086C4.48763 12.099 4.73145 11.8916 5.01855 11.6865L5.55859 12.3291C5.3444 12.4385 5.13932 12.5615 4.94336 12.6982C4.7474 12.8304 4.57422 12.9808 4.42383 13.1494C4.27344 13.318 4.15267 13.5049 4.06152 13.71C3.97493 13.9105 3.93164 14.1338 3.93164 14.3799C3.93164 14.5531 3.97038 14.7217 4.04785 14.8857C4.12533 15.0498 4.24837 15.1979 4.41699 15.3301C4.58561 15.4577 4.80208 15.5625 5.06641 15.6445C5.33073 15.722 5.64746 15.7607 6.0166 15.7607C6.35384 15.7607 6.68652 15.7129 7.01465 15.6172C7.34733 15.5215 7.64355 15.3802 7.90332 15.1934C8.16309 15.0065 8.37272 14.7718 8.53223 14.4893C8.69629 14.2067 8.77832 13.8763 8.77832 13.498C8.77832 13.252 8.7168 12.999 8.59375 12.7393C8.47526 12.4795 8.32259 12.2152 8.13574 11.9463C7.95345 11.6774 7.75521 11.404 7.54102 11.126C7.33138 10.848 7.13314 10.5677 6.94629 10.2852C6.764 9.99805 6.61133 9.71094 6.48828 9.42383C6.36979 9.13216 6.31055 8.83822 6.31055 8.54199C6.31055 8.10449 6.39714 7.73763 6.57031 7.44141C6.74349 7.14062 6.9668 6.89909 7.24023 6.7168C7.51367 6.52995 7.81445 6.39779 8.14258 6.32031C8.47526 6.23828 8.79883 6.19727 9.11328 6.19727C9.40495 6.19727 9.66243 6.23145 9.88574 6.2998C10.1136 6.36361 10.3141 6.44792 10.4873 6.55273C10.665 6.65755 10.82 6.77832 10.9521 6.91504C11.0843 7.0472 11.2028 7.18164 11.3076 7.31836L10.6377 7.83789ZM17.1934 14.332C17.0612 14.7376 16.9017 15.0589 16.7148 15.2959C16.528 15.5329 16.3343 15.7129 16.1338 15.8359C15.9378 15.959 15.7441 16.0365 15.5527 16.0684C15.3613 16.1048 15.1904 16.123 15.04 16.123C14.8122 16.123 14.6003 16.0934 14.4043 16.0342C14.2129 15.9749 14.0306 15.8975 13.8574 15.8018C13.6842 15.7061 13.5225 15.599 13.3721 15.4805C13.2217 15.3574 13.0781 15.2344 12.9414 15.1113C12.6908 15.4121 12.4173 15.6536 12.1211 15.8359C11.8249 16.0137 11.499 16.1025 11.1436 16.1025C11.0205 16.1025 10.8975 16.082 10.7744 16.041C10.6468 16.0046 10.5329 15.9476 10.4326 15.8701C10.3278 15.7881 10.2435 15.6855 10.1797 15.5625C10.1159 15.4349 10.084 15.2845 10.084 15.1113C10.084 14.9336 10.1227 14.7627 10.2002 14.5986C10.2731 14.4346 10.3779 14.291 10.5146 14.168C10.6468 14.0404 10.8063 13.9401 10.9932 13.8672C11.1755 13.7943 11.376 13.7578 11.5947 13.7578C11.8135 13.7578 12.0186 13.8057 12.21 13.9014C12.4059 13.9925 12.5996 14.1064 12.791 14.2432C12.9277 13.9788 13.0576 13.694 13.1807 13.3887C13.3037 13.0788 13.4199 12.7598 13.5293 12.4316C13.6432 12.099 13.7503 11.764 13.8506 11.4268C13.9508 11.0895 14.0488 10.7568 14.1445 10.4287C14.3177 9.81803 14.4977 9.28939 14.6846 8.84277C14.8714 8.39616 15.0605 8.0179 15.252 7.70801C15.4479 7.39355 15.6439 7.13835 15.8398 6.94238C16.0358 6.74186 16.2295 6.58691 16.4209 6.47754C16.6123 6.36816 16.8014 6.29525 16.9883 6.25879C17.1751 6.21777 17.3574 6.19727 17.5352 6.19727C17.763 6.19727 17.9658 6.22917 18.1436 6.29297C18.3213 6.35677 18.4717 6.44564 18.5947 6.55957C18.7178 6.66895 18.8112 6.79883 18.875 6.94922C18.9388 7.09505 18.9707 7.25228 18.9707 7.4209C18.9707 7.58952 18.9388 7.7513 18.875 7.90625C18.8112 8.05664 18.7246 8.19792 18.6152 8.33008C18.5059 8.45768 18.376 8.57161 18.2256 8.67188C18.0798 8.77214 17.9248 8.85417 17.7607 8.91797L17.5557 8.11816C17.6742 8.11361 17.7926 8.09538 17.9111 8.06348C18.0342 8.02702 18.1436 7.97461 18.2393 7.90625C18.335 7.83789 18.4124 7.75358 18.4717 7.65332C18.5355 7.55306 18.5674 7.43229 18.5674 7.29102C18.5674 7.19076 18.5469 7.09049 18.5059 6.99023C18.4694 6.88542 18.4079 6.79427 18.3213 6.7168C18.2393 6.63932 18.1299 6.57552 17.9932 6.52539C17.8564 6.47526 17.6901 6.4502 17.4941 6.4502C17.2708 6.4502 17.0635 6.51172 16.8721 6.63477C16.6852 6.75781 16.512 6.92415 16.3525 7.13379C16.193 7.34342 16.0472 7.58952 15.915 7.87207C15.7829 8.15007 15.6598 8.44401 15.5459 8.75391C15.432 9.0638 15.3249 9.38281 15.2246 9.71094C15.1243 10.0345 15.0309 10.349 14.9443 10.6543C14.8486 10.9733 14.7438 11.3083 14.6299 11.6592C14.516 12.0055 14.3906 12.3519 14.2539 12.6982C14.1217 13.0446 13.9759 13.3841 13.8164 13.7168C13.6569 14.0449 13.4837 14.3503 13.2969 14.6328C13.429 14.7331 13.5635 14.8311 13.7002 14.9268C13.8415 15.0225 13.9873 15.1068 14.1377 15.1797C14.2926 15.2526 14.4544 15.3118 14.623 15.3574C14.7962 15.403 14.9785 15.4258 15.1699 15.4258C15.3704 15.4258 15.5596 15.4121 15.7373 15.3848C15.915 15.3574 16.0768 15.3027 16.2227 15.2207C16.373 15.1341 16.5052 15.0133 16.6191 14.8584C16.7331 14.7035 16.8242 14.4984 16.8926 14.2432L17.1934 14.332ZM11.0889 15.7607C11.3669 15.7607 11.6243 15.6673 11.8613 15.4805C12.0983 15.2936 12.3193 15.0407 12.5244 14.7217C12.3467 14.5576 12.1712 14.4209 11.998 14.3115C11.8294 14.1976 11.6562 14.1406 11.4785 14.1406C11.3053 14.1406 11.1549 14.1702 11.0273 14.2295C10.8952 14.2887 10.7835 14.3662 10.6924 14.4619C10.6012 14.5531 10.5329 14.6556 10.4873 14.7695C10.4417 14.8789 10.4189 14.986 10.4189 15.0908C10.4189 15.2959 10.4782 15.46 10.5967 15.583C10.7152 15.7015 10.8792 15.7607 11.0889 15.7607Z" fill="#258BD4"/>
<circle cx="12" cy="12" r="11.75" stroke="#258BD4" stroke-width="0.5"/>
</svg>
