<svg width="25" height="25" viewBox="0 0 25 25" fill="none" xmlns="http://www.w3.org/2000/svg">
<path d="M18.7812 7.03125C18.7812 10.4989 15.9676 13.3125 12.5 13.3125C9.03238 13.3125 6.21875 10.4989 6.21875 7.03125C6.21875 3.56363 9.03238 0.75 12.5 0.75C15.9676 0.75 18.7812 3.56363 18.7812 7.03125ZM12.5 17.1562C13.8227 17.1562 15.0817 16.8737 16.2201 16.375H18.75C21.7879 16.375 24.25 18.8371 24.25 21.875V22.6562C24.25 23.536 23.536 24.25 22.6562 24.25H2.34375C1.46402 24.25 0.75 23.536 0.75 22.6562V21.875C0.75 18.8371 3.21207 16.375 6.25 16.375H8.78051C9.92185 16.8733 11.1763 17.1562 12.5 17.1562Z" stroke="white" stroke-width="1.5"/>
</svg>
